<?xml version="1.0" encoding="UTF-8" standalone="no"?>
<svg width="128" height="128" viewBox="0 0 128 128" xmlns="http://www.w3.org/2000/svg">
  <!-- 背景圆形 -->
  <circle cx="64" cy="64" r="60" fill="#2b3137" />
  
  <!-- Git图标 -->
  <g transform="translate(32, 32) scale(0.04)">
    <path d="M1308.65,71.3C1241.18,3.83,1143.35,3.83,1075.88,71.3L931.98,215.2L1102.94,386.16C1119.16,380.78,1136.91,378.04,1155.88,378.04C1216.06,378.04,1265.94,427.92,1265.94,488.1C1265.94,507.07,1263.2,524.82,1257.82,541.04L1423.41,706.63C1439.63,701.25,1457.38,698.51,1476.35,698.51C1536.53,698.51,1586.41,748.39,1586.41,808.57C1586.41,868.75,1536.53,918.63,1476.35,918.63C1416.17,918.63,1366.29,868.75,1366.29,808.57C1366.29,789.6,1369.03,771.85,1374.41,755.63L1208.82,590.04C1203.44,595.42,1197.06,600.8,1190.68,604.54V1023.22C1227.82,1038.22,1255.94,1075.36,1255.94,1118.63C1255.94,1178.81,1206.06,1228.69,1145.88,1228.69C1085.7,1228.69,1035.82,1178.81,1035.82,1118.63C1035.82,1075.36,1063.94,1038.22,1101.08,1023.22V604.54C1063.94,589.54,1035.82,552.4,1035.82,509.13C1035.82,490.16,1038.56,472.41,1043.94,456.19L878.35,290.6L71.3,1097.65C3.83,1165.12,3.83,1262.95,71.3,1330.42L271.3,1530.42C338.77,1597.89,436.6,1597.89,504.07,1530.42L1308.65,725.84C1376.12,658.37,1376.12,560.54,1308.65,493.07L1308.65,71.3Z" fill="#f05033"/>
  </g>
  
  <!-- AI文本 -->
  <text x="64" y="100" font-family="Arial, sans-serif" font-size="24" font-weight="bold" text-anchor="middle" fill="#ffffff">CommitX</text>
  
  <!-- 小型AI图标 -->
  <g transform="translate(80, 40) scale(0.5)">
    <circle cx="0" cy="0" r="12" fill="#61dafb" />
    <text x="0" y="5" font-family="Arial, sans-serif" font-size="12" font-weight="bold" text-anchor="middle" fill="#ffffff">AI</text>
  </g>
</svg>